<svg version="1.1" id="Layer_1" xmlns="http://www.w3.org/2000/svg" xmlns:xlink="http://www.w3.org/1999/xlink" x="0px" y="0px"
	 width="100%" viewBox="0 0 184 179" enable-background="new 0 0 184 179" xml:space="preserve">
<path fill="none" opacity="1.000000" stroke="#000000" stroke-linecap="round" stroke-linejoin="round" stroke-width="5.000000"
	d="
M133.000000,78.500000 
	C130.446350,83.104233 130.078918,88.613113 126.974670,93.216484 
	C118.356857,89.302414 112.388260,83.383583 112.058136,73.498062 
	C111.672318,61.945229 118.473907,55.438766 128.813477,51.376484 
	C131.145020,58.941700 134.783005,66.194740 132.073166,74.523804 
	C131.590683,76.006783 132.562592,77.807266 134.023666,78.445854 
	C142.188858,82.014603 145.662277,89.314606 147.291611,97.043930 
	C149.294022,106.543190 151.484573,116.003250 153.688141,125.328842 
	C151.477539,128.340042 148.081894,125.858986 145.375000,128.312057 
	C145.375000,133.334076 145.375000,139.169830 145.375000,145.375000 
	C139.835342,145.375000 134.667191,145.375000 129.879669,145.375000 
	C127.928337,150.143051 130.095245,154.882278 128.249191,159.250000 
	C114.997902,159.250000 101.747383,159.250000 88.313560,159.250000 
	C87.135574,154.609604 89.515335,150.647720 90.167038,146.526413 
	C90.719795,143.030899 92.145355,139.677505 92.038055,135.998886 
	C91.971146,133.704651 93.419899,132.556641 95.450066,131.411484 
	C101.733337,127.867256 105.625992,122.212944 107.949707,115.482635 
	C108.309608,114.440231 108.000000,113.166664 108.000000,112.000000 
"/>
<path fill="none" opacity="1.000000" stroke="#000000" stroke-linecap="round" stroke-linejoin="round" stroke-width="5.000000"
	d="
M128.000000,51.500000 
	C124.301285,40.865383 116.385895,34.253613 106.472328,30.065504 
	C80.919785,19.270529 54.349571,32.628990 46.633327,58.040485 
	C43.818024,67.311974 43.207607,76.990852 48.490177,86.005760 
	C49.596355,87.893494 49.704636,90.639282 48.851257,91.899254 
	C42.292847,101.582481 44.440384,110.915245 48.954727,120.521278 
	C54.706459,132.760315 72.258530,141.094711 86.515343,136.043304 
	C87.900505,135.552521 89.500000,135.666672 91.000000,135.500000 
"/>
<path fill="none" opacity="1.000000" stroke="#000000" stroke-linecap="round" stroke-linejoin="round" stroke-width="5.000000"
	d="
M145.000000,89.500000 
	C152.824280,83.885468 155.807877,76.095245 153.345093,67.042137 
	C151.028030,58.524654 144.744629,53.302280 135.984497,51.578762 
	C134.090607,51.206146 132.000000,51.833336 130.000000,52.000000 
"/>
<path fill="none" opacity="1.000000" stroke="#000000" stroke-linecap="round" stroke-linejoin="round" stroke-width="5.000000"
	d="
M82.000000,115.000000 
	C87.940323,113.796249 94.150444,115.200241 100.015404,113.041855 
	C102.085686,112.279953 104.321098,111.936378 106.503197,111.516617 
	C109.047096,111.027267 110.002426,109.112236 109.937462,107.001923 
	C109.628593,96.969498 106.944572,87.800735 98.975990,81.028252 
	C92.821472,75.797531 85.721268,72.623444 77.499832,72.512375 
	C69.321587,72.401901 62.231010,75.363930 56.016037,80.519333 
	C53.749752,82.399239 51.666668,84.500000 49.500000,86.500000 
"/>
<path fill="none" opacity="1.000000" stroke="#000000" stroke-linecap="round" stroke-linejoin="round" stroke-width="5.000000"
	d="
M91.000000,77.500000 
	C85.750381,83.164757 81.203674,89.227829 79.480644,96.995705 
	C78.669395,100.652992 78.915901,104.343124 79.063286,107.997444 
	C79.242638,112.444008 78.124603,113.534927 74.004768,111.987312 
	C65.653175,108.850044 58.712807,103.829575 53.474926,96.517960 
	C52.312599,94.895454 50.833332,93.500000 49.500000,92.000000 
"/>
<path fill="none" opacity="1.000000" stroke="#000000" stroke-linecap="round" stroke-linejoin="round" stroke-width="5.000000"
	d="
M113.000000,70.000000 
	C119.383324,70.865021 125.454590,72.884697 131.500000,75.000000 
"/>
<path fill="none" opacity="1.000000" stroke="#000000" stroke-linecap="round" stroke-linejoin="round" stroke-width="5.000000"
	d="
M112.000000,70.500000 
	C105.506859,70.575569 99.309891,71.514969 94.500000,76.500000 
"/>
<path fill="none" opacity="1.000000" stroke="#000000" stroke-linecap="round" stroke-linejoin="round" stroke-width="5.000000"
	d="
M126.000000,93.500000 
	C122.552429,99.829987 118.172272,105.160774 111.000000,107.500000 
"/>
<path fill="none" opacity="1.000000" stroke="#000000" stroke-linecap="round" stroke-linejoin="round" stroke-width="5.000000"
	d="
M79.500000,112.500000 
	C82.474266,114.561127 81.514999,118.422218 83.455635,121.032974 
	C86.296837,124.855270 89.679428,128.139252 93.000000,131.500000 
"/>
<path fill="none" opacity="1.000000" stroke="#000000" stroke-linecap="round" stroke-linejoin="round" stroke-width="6.000000"
	d="
M144.500000,90.000000 
	C139.396530,93.450439 133.972015,94.782013 128.000000,92.500000 
"/>
</svg>